<svg version="1.1" id="Layer_1" xmlns="http://www.w3.org/2000/svg" xmlns:xlink="http://www.w3.org/1999/xlink" x="0px" y="0px"
	 width="100%" viewBox="0 0 402 380" enable-background="new 0 0 402 380" xml:space="preserve">
<path fill="#010101" opacity="1.000000" stroke="none" 
	d="
M238.000000,381.000000 
	C160.000031,381.000000 82.500000,380.971069 5.000224,381.096161 
	C1.575944,381.101685 0.901736,380.424011 0.904865,376.999969 
	C1.018178,253.000122 1.018168,129.000122 0.904899,5.000269 
	C0.901772,1.576777 1.575671,0.902023 4.999896,0.904949 
	C136.333099,1.017175 267.666412,1.017158 398.999603,0.905016 
	C402.422791,0.902093 403.098297,1.575265 403.095154,4.999782 
	C402.981812,128.999634 402.981842,252.999634 403.095062,376.999481 
	C403.098175,380.422455 402.426178,381.106293 399.000183,381.097351 
	C345.500397,380.958313 292.000153,381.000000 238.000000,381.000000 
z"/>
<path fill="#A6BCFC" opacity="1.000000" stroke="none" 
	d="
M182.272629,305.213196 
	C176.507065,294.474670 171.320557,283.623474 164.498459,273.649994 
	C152.181610,255.643448 136.652176,240.874344 119.095131,228.106537 
	C117.593414,227.014435 116.280434,227.125397 114.537071,227.826828 
	C107.648659,230.598267 100.694695,233.219101 93.693962,235.694794 
	C88.826645,237.416061 83.485428,237.493118 78.386368,239.797089 
	C77.418785,239.216965 77.067055,238.518036 77.033920,237.283356 
	C77.744438,234.619232 79.502785,233.533951 81.913635,232.674347 
	C84.587616,232.650970 85.800125,231.655579 86.286919,229.260788 
	C86.671265,227.369995 86.235466,225.268433 87.766693,223.326111 
	C88.004944,223.074417 88.367607,222.846146 88.579277,222.879349 
	C89.947929,221.969467 91.451622,223.295563 92.743217,222.026031 
	C106.128120,215.793182 119.691025,210.638107 132.328720,203.289413 
	C154.534607,190.376923 173.818497,174.126114 190.682632,154.846634 
	C192.246994,153.058243 192.150024,151.919449 190.853989,150.180359 
	C188.291901,146.742386 185.923813,143.159836 183.372360,139.323502 
	C186.586456,135.339554 191.428940,135.891541 195.960327,134.705322 
	C197.827240,134.782013 198.207153,136.080139 198.816315,136.991623 
	C209.527725,153.019440 222.784515,166.738281 237.165359,179.452789 
	C238.614716,180.734207 239.653366,181.812363 241.766678,180.274933 
	C251.033401,173.533417 260.733307,167.443680 270.907593,161.822235 
	C269.412170,159.668610 267.534424,158.393799 265.763885,156.975616 
	C234.209198,131.700623 212.615143,99.830605 201.701553,60.761349 
	C197.467026,45.602264 195.278748,30.228411 194.869736,14.528609 
	C194.797302,11.748769 195.274780,10.811690 198.255753,10.758490 
	C208.613266,10.573643 208.453186,10.457976 209.141632,21.003885 
	C211.659531,59.573910 225.530258,93.553719 250.514404,123.057251 
	C260.268677,134.575974 271.845123,143.998444 283.791229,153.059326 
	C285.770874,154.560822 287.395660,153.992508 289.322540,153.216522 
	C303.160919,147.643814 317.287750,142.960739 332.260101,139.792770 
	C330.577423,137.283203 328.085022,136.687897 325.921814,135.754349 
	C302.876099,125.808670 284.298889,110.171402 269.870453,89.945732 
	C254.935699,69.010315 246.166092,45.540310 244.990219,19.582977 
	C244.590332,10.755138 244.701523,10.972931 253.616562,10.722765 
	C257.380768,10.617135 258.399506,11.809847 258.546082,15.394581 
	C259.232666,32.187351 262.912476,48.280075 270.392120,63.429642 
	C287.860443,98.810570 315.887299,121.088844 353.989044,130.869598 
	C357.039001,131.652512 360.155975,132.174484 363.616852,132.942657 
	C364.477325,133.512268 365.001404,133.905334 365.798615,134.474915 
	C366.474854,136.404587 368.283508,136.543655 369.533234,137.814178 
	C370.446930,138.887970 370.474335,140.092941 371.519897,141.102509 
	C371.842224,141.551086 371.956665,141.742355 372.192200,142.246887 
	C371.753967,144.515549 376.196991,147.020660 371.335327,148.642059 
	C351.107178,149.397278 331.705353,153.196671 312.867096,159.344147 
	C292.921173,165.853088 274.212982,175.056381 256.802612,186.980927 
	C240.474380,198.164276 226.073730,211.342575 212.951736,226.058792 
	C211.227661,227.992310 210.857117,229.218246 212.521027,231.447266 
	C219.184738,240.374084 225.008362,249.860458 230.494492,259.773102 
	C234.208450,257.144012 236.468765,253.390121 239.214966,250.129852 
	C265.210114,219.268570 298.132904,199.429535 336.922058,189.295898 
	C350.261444,185.810989 364.039368,184.335281 377.884155,183.931900 
	C380.848480,183.845551 382.267914,184.176056 382.247528,187.784790 
	C382.191681,197.674911 382.388550,197.654099 372.594421,198.208420 
	C341.934265,199.943588 313.701843,209.120407 287.879669,225.768265 
	C268.753052,238.099396 252.923630,253.807037 239.795746,272.317719 
	C238.975952,273.473663 237.672104,274.339417 238.441071,276.231049 
	C244.309265,290.666809 249.389496,305.371307 252.998138,321.947052 
	C254.623169,318.765991 255.716690,316.846588 256.612335,314.838928 
	C269.929260,284.987946 291.546936,262.890533 320.403839,248.082809 
	C336.878632,239.628906 354.589142,234.651306 373.286865,233.954376 
	C382.293671,233.618668 382.110291,233.633789 382.256561,242.916519 
	C382.312775,246.485031 381.137177,247.217758 377.774353,247.375320 
	C346.894958,248.822021 319.860382,259.793060 297.332947,281.069702 
	C273.284698,303.782776 260.356323,331.852753 258.637817,364.888611 
	C258.379425,369.855255 256.971222,371.854889 252.041031,370.912262 
	C251.397797,370.789307 250.695480,370.800934 250.046875,370.908722 
	C245.497833,371.664612 243.933609,370.253845 243.807571,365.194458 
	C242.617691,317.429260 227.338593,274.459045 198.681625,236.303955 
	C189.064606,223.499451 177.643661,212.302597 165.826614,201.509155 
	C163.754486,199.616516 162.540329,200.265106 160.767258,201.582123 
	C151.813171,208.233093 142.257385,213.945419 131.825058,219.799805 
	C151.916962,235.527237 169.457321,253.226852 182.123779,275.669556 
	C180.180389,277.783112 181.391190,279.668854 182.115738,281.433502 
	C182.987625,283.556915 184.371414,285.477417 184.547684,288.197327 
	C184.035049,291.522644 185.814957,293.040283 188.438217,294.429321 
	C188.834045,294.881256 188.970947,295.084351 189.241394,295.634949 
	C190.147034,298.352905 192.016220,300.646423 189.599976,303.488647 
	C187.249924,304.949310 184.790619,304.331543 182.272629,305.213196 
z"/>
<path fill="#A6BCFB" opacity="1.000000" stroke="none" 
	d="
M158.878510,115.339638 
	C165.288940,109.468018 164.889023,103.475082 161.427246,96.270943 
	C156.058258,85.097900 153.548538,72.862404 150.075821,59.758785 
	C148.716995,62.353809 147.746048,63.955902 147.006531,65.658516 
	C137.028503,88.631027 121.709770,107.403633 101.474800,121.943611 
	C81.590347,136.231720 59.412956,145.011169 34.812759,147.076675 
	C31.167347,147.382751 27.516598,147.639618 23.879477,148.024673 
	C21.756226,148.249466 21.079214,147.533310 20.918547,145.322403 
	C20.126944,134.429352 20.077013,134.735153 30.845846,133.741348 
	C63.271057,130.748978 90.721916,117.486816 112.715843,93.292931 
	C132.843933,71.151512 143.230438,44.966606 144.665634,15.219584 
	C144.854950,11.295503 146.166306,10.672458 149.635483,10.747356 
	C158.541946,10.939647 158.845032,10.765488 159.263565,19.586735 
	C160.238510,40.134438 163.771011,60.194763 170.125504,79.737762 
	C174.855911,94.285919 181.130325,108.170128 188.794525,121.422646 
	C190.026169,123.552307 191.026367,125.815819 192.123718,128.380432 
	C193.053253,130.640091 191.962631,131.730286 190.357147,131.790039 
	C186.850479,131.920517 183.373459,133.489899 179.417267,132.047363 
	C176.850586,128.554688 174.694122,125.129044 172.336472,121.383812 
	C170.003525,124.068741 167.868683,126.525673 165.436722,129.159012 
	C163.570190,128.432892 163.610397,126.873665 163.722275,125.425194 
	C164.054291,121.126907 162.508209,117.849510 158.878510,115.339638 
z"/>
<path fill="#A6BCFC" opacity="1.000000" stroke="none" 
	d="
M141.442612,304.664917 
	C141.599228,305.082764 141.745163,305.239990 141.946320,305.714264 
	C141.449677,312.027008 137.782059,315.047852 131.446167,314.221558 
	C121.758591,297.076050 109.700150,282.477875 93.985298,271.088226 
	C74.002991,256.605652 51.656876,248.615234 26.989962,247.562866 
	C22.204006,247.358673 19.925777,246.106171 20.978773,241.087021 
	C21.045628,240.768372 20.986055,240.423248 20.985767,240.090439 
	C20.979803,233.190094 20.978907,233.165771 28.088343,232.899307 
	C40.210480,232.444962 52.222988,231.022385 64.584450,228.941025 
	C67.320877,230.390778 68.762398,232.616074 70.223808,234.769547 
	C71.392860,236.492249 72.748245,237.741364 75.191193,238.158569 
	C75.899246,238.627457 76.168755,239.019394 76.208145,239.820007 
	C74.749695,241.506607 72.336418,240.539413 71.131088,242.786484 
	C101.004494,255.306717 124.804893,274.958710 140.895050,303.824707 
	C141.119232,304.252136 141.275574,304.328247 141.442612,304.664917 
z"/>
<path fill="#A6BCFB" opacity="1.000000" stroke="none" 
	d="
M76.233246,188.678955 
	C62.645435,193.842377 48.704517,195.736465 34.633419,196.945312 
	C33.144337,197.073257 31.639700,197.009628 30.143517,197.067108 
	C20.940163,197.420715 21.282890,197.407043 20.836838,188.285461 
	C20.618155,183.813446 22.886520,183.382950 26.011618,183.337311 
	C44.937561,183.060867 63.178082,179.213593 80.948959,172.896286 
	C83.427139,172.015350 85.851021,170.981674 88.674789,170.020691 
	C92.338448,170.895615 90.657372,172.940216 89.996590,174.547318 
	C88.697388,177.707214 87.171745,180.782532 88.225113,184.622971 
	C87.237091,185.316956 86.480797,185.718292 85.400772,186.148239 
	C81.730042,185.122040 78.607841,184.918015 76.233246,188.678955 
z"/>
<path fill="#A5BBFA" opacity="1.000000" stroke="none" 
	d="
M196.674515,306.896210 
	C204.553162,326.640320 207.994904,347.100647 208.314819,368.139648 
	C208.335342,369.489166 208.685715,370.904633 206.572006,370.886414 
	C203.245834,370.857727 199.915924,370.968781 196.593826,370.848572 
	C193.776093,370.746582 194.311996,368.370026 194.284424,366.720276 
	C194.086685,354.888855 192.606476,343.211334 189.869019,331.724060 
	C188.344345,325.325958 186.255219,319.062347 184.379791,312.371582 
	C185.434494,310.495453 187.082703,310.337463 188.709839,310.385803 
	C190.883255,310.450348 192.372055,309.315552 194.032639,307.667725 
	C194.918060,307.050476 195.587830,306.850006 196.674515,306.896210 
z"/>
<path fill="#99ACE5" opacity="1.000000" stroke="none" 
	d="
M116.831863,155.272491 
	C125.905792,148.014145 135.236938,141.448959 143.432526,133.024414 
	C148.290100,131.459106 150.532257,127.601921 153.112991,124.047050 
	C156.674103,119.141754 157.539383,119.203018 160.324951,124.337639 
	C161.421310,126.358543 163.284698,127.917221 163.900055,130.616272 
	C157.214905,140.359390 148.425873,147.684280 139.506226,155.327301 
	C136.984421,155.178284 135.696594,152.172180 133.518250,152.879593 
	C130.561874,153.839630 128.502533,156.519669 125.962097,158.320923 
	C123.918556,159.769867 126.374672,163.053925 125.117828,165.704239 
	C120.018578,169.081955 114.931114,172.110352 109.495270,175.222198 
	C106.716377,174.563202 105.347420,172.689178 104.413528,170.534042 
	C103.418335,168.237396 103.960175,165.835587 106.373138,165.208267 
	C110.153008,164.225555 112.318428,162.074356 113.587982,158.549438 
	C114.097847,157.133820 116.212479,157.143936 116.831863,155.272491 
z"/>
<path fill="#98A9E0" opacity="1.000000" stroke="none" 
	d="
M147.680283,318.817047 
	C150.920944,324.029205 152.776138,329.511505 153.916351,335.632446 
	C154.038986,343.313019 149.342270,347.193817 143.453354,350.229858 
	C141.112015,339.952454 138.392075,330.116119 133.975769,320.422729 
	C134.448212,315.237610 135.020203,314.814819 139.663818,315.642761 
	C142.433426,316.136566 145.054916,316.965576 147.680283,318.817047 
z"/>
<path fill="#A3B9F9" opacity="1.000000" stroke="none" 
	d="
M155.650955,343.649994 
	C158.607605,351.986053 157.526794,360.472260 158.879547,368.654846 
	C158.932495,368.975067 158.991547,369.488678 158.820602,369.622955 
	C155.340286,372.356506 151.299088,370.304108 147.553909,370.891144 
	C145.703873,371.181091 144.942856,370.366241 144.849396,368.392639 
	C144.621262,363.574951 144.142685,358.769104 143.800293,353.503632 
	C146.881195,350.407074 148.213074,346.368896 151.464249,343.842010 
	C152.863113,342.754730 153.886581,341.581787 155.650955,343.649994 
z"/>
<path fill="#A0B4F3" opacity="1.000000" stroke="none" 
	d="
M116.533379,155.020325 
	C116.778687,160.845047 113.064415,165.540375 108.114388,166.126221 
	C105.095383,166.483551 104.363708,168.054428 106.160667,170.549698 
	C107.120705,171.882828 108.623672,172.828125 109.071983,174.941574 
	C105.546181,178.506577 100.721832,179.316040 96.346207,181.721313 
	C93.667175,178.842819 97.471397,177.953796 98.064079,175.543106 
	C94.875885,174.728149 93.135239,176.182739 91.891235,178.819687 
	C91.174904,180.338089 91.531693,182.155411 90.272507,183.839569 
	C89.573799,184.409302 89.083267,184.699341 88.293060,184.952484 
	C85.503708,181.983795 86.293282,179.112579 87.745399,175.952301 
	C88.510452,174.287308 89.929749,172.641113 89.244568,170.269653 
	C98.180794,165.198837 107.624107,160.943207 116.533379,155.020325 
z"/>
<path fill="#9CAEE6" opacity="1.000000" stroke="none" 
	d="
M75.229630,238.789398 
	C70.778000,239.179962 67.408493,236.045502 65.019821,229.344696 
	C70.321411,227.617599 75.633286,226.255447 81.333992,224.901672 
	C86.446274,225.435745 87.185104,228.533661 83.356743,233.643250 
	C81.479347,234.827133 79.589188,235.016022 78.243652,236.787277 
	C77.333069,237.813370 76.470833,238.315552 75.229630,238.789398 
z"/>
<path fill="#9FB2EF" opacity="1.000000" stroke="none" 
	d="
M164.186966,130.863831 
	C160.136398,129.105286 158.241425,125.837807 157.441376,121.745506 
	C154.476685,122.137009 153.569382,124.659393 153.095428,126.599251 
	C151.939331,131.331055 148.815979,132.736526 144.143646,132.910858 
	C146.353622,130.065033 148.971649,127.230247 151.867050,124.201950 
	C152.268784,123.833237 152.393112,123.658035 152.757477,123.267815 
	C154.813522,120.497917 156.629547,117.943047 158.723114,115.203461 
	C163.641983,115.111031 166.443390,119.297470 165.732361,125.135757 
	C165.594620,126.266754 165.314957,127.380470 165.120178,128.918793 
	C164.902802,129.804596 164.666000,130.273788 164.186966,130.863831 
z"/>
<path fill="#9EB1ED" opacity="1.000000" stroke="none" 
	d="
M125.427658,165.956268 
	C123.401398,163.859360 123.896111,160.978287 122.777237,158.587265 
	C122.339966,157.652832 122.349442,156.185135 123.618881,156.278305 
	C127.453911,156.559784 128.829285,153.501572 131.150467,151.521271 
	C135.437149,147.864120 137.054047,151.946259 139.083572,155.085876 
	C134.702133,158.919205 130.225708,162.389099 125.427658,165.956268 
z"/>
<path fill="#A0B4F0" opacity="1.000000" stroke="none" 
	d="
M179.056931,132.322540 
	C182.990417,129.516968 187.736099,130.836441 192.017914,129.060608 
	C194.516296,129.752960 195.628876,131.765610 196.313904,134.487427 
	C192.939606,138.298752 188.340988,138.179565 183.666229,139.008728 
	C181.881744,136.894867 180.494278,134.779816 179.056931,132.322540 
z"/>
<path fill="#9EB1EE" opacity="1.000000" stroke="none" 
	d="
M148.029419,318.544800 
	C144.438477,320.798157 141.722183,317.524933 138.470947,317.097717 
	C135.800293,316.746826 134.941360,317.477448 134.110825,319.843903 
	C132.959808,318.276123 132.047974,316.480255 131.124512,314.338348 
	C136.035889,313.539886 139.149246,310.509186 141.823639,306.315430 
	C145.279175,309.448334 146.034546,314.113281 148.029419,318.544800 
z"/>
<path fill="#9CADE6" opacity="1.000000" stroke="none" 
	d="
M369.193420,139.236328 
	C367.931427,137.601044 365.024384,138.408859 365.013794,135.352875 
	C366.157532,133.551895 367.819702,134.175888 369.664978,133.943787 
	C371.106201,133.902191 372.164581,133.884354 373.606995,133.972351 
	C377.033630,136.017746 379.819611,138.216766 381.742859,141.763458 
	C382.035553,143.074219 382.100098,144.140396 382.065186,145.596924 
	C376.100494,149.195786 375.575928,149.025406 371.270874,142.298248 
	C371.009766,141.997879 371.000000,142.000000 371.001038,141.995483 
	C370.193298,141.323074 369.830322,140.370010 369.193420,139.236328 
z"/>
<path fill="#A7B3EA" opacity="1.000000" stroke="none" 
	d="
M183.236603,289.218567 
	C183.145218,286.310608 181.359604,284.459900 180.281891,282.273956 
	C179.214493,280.108887 177.089569,277.375153 181.822571,276.040680 
	C186.511429,281.861237 189.688461,288.294952 192.275818,295.369629 
	C191.399841,296.684479 190.275696,296.867706 188.517319,296.301636 
	C188.006714,295.989014 188.008286,295.494507 188.006287,295.247253 
	C186.260513,293.339996 184.688614,291.539215 183.236603,289.218567 
z"/>
<path fill="#9EB1EB" opacity="1.000000" stroke="none" 
	d="
M90.419891,184.086838 
	C88.475525,177.719879 91.591736,172.856720 97.149315,173.009415 
	C99.112114,173.063339 100.936188,173.599228 101.422997,175.612000 
	C101.877151,177.489822 100.001007,177.952057 98.708771,178.563553 
	C97.529716,179.121521 96.135796,179.375565 96.029541,181.416809 
	C94.258705,182.527588 92.517082,183.290985 90.419891,184.086838 
z"/>
<path fill="#A2B5F0" opacity="1.000000" stroke="none" 
	d="
M195.223129,307.643829 
	C193.732620,314.334137 188.884048,311.838745 184.729675,312.009460 
	C183.917130,310.900269 183.495148,309.795502 183.067383,308.334656 
	C182.501160,302.452332 187.310562,305.282318 189.776459,303.768738 
	C192.935211,303.363129 195.237823,303.802246 195.223129,307.643829 
z"/>
<path fill="#9DB0EC" opacity="1.000000" stroke="none" 
	d="
M155.833679,343.611938 
	C151.258148,343.177795 150.603333,347.364685 148.777740,349.769684 
	C147.593170,351.330231 147.112457,353.308197 144.225037,353.033508 
	C143.563293,352.248810 143.290924,351.448853 143.080429,350.325745 
	C146.893311,345.766266 151.979935,342.552246 153.654633,336.292114 
	C154.538177,338.430847 155.200256,340.834778 155.833679,343.611938 
z"/>
<path fill="#A9BBFA" opacity="1.000000" stroke="none" 
	d="
M195.290802,307.955872 
	C194.549515,304.767487 192.090637,305.021881 189.395233,304.999634 
	C188.650070,304.601868 188.505127,304.140625 188.782089,303.307556 
	C190.841049,300.564423 187.820526,298.880371 188.015991,296.343384 
	C189.078995,295.924591 190.151276,295.860168 191.758881,295.742676 
	C193.869217,299.189575 195.444214,302.689606 197.024551,306.560242 
	C196.548538,307.256958 196.067200,307.583069 195.290802,307.955872 
z"/>
<path fill="#9FB4F2" opacity="1.000000" stroke="none" 
	d="
M83.362167,233.971497 
	C83.446823,230.992661 85.536095,227.912064 82.100616,225.018921 
	C83.301079,223.503052 85.453423,223.766800 87.629875,223.041779 
	C88.535034,227.469727 90.142281,232.287292 83.362167,233.971497 
z"/>
<path fill="#9DB1F0" opacity="1.000000" stroke="none" 
	d="
M382.059814,141.562119 
	C378.263641,140.764816 376.066742,137.887314 374.052368,134.412079 
	C374.311676,134.031296 374.633057,133.938660 374.952759,133.944244 
	C383.883850,134.100220 381.992706,133.256927 382.059814,141.562119 
z"/>
<path fill="#A0B4F3" opacity="1.000000" stroke="none" 
	d="
M76.368469,188.938950 
	C77.302902,182.564026 79.961327,181.550095 84.863625,185.891357 
	C82.299149,187.108002 79.521255,188.039169 76.368469,188.938950 
z"/>
<path fill="#9DB1F0" opacity="1.000000" stroke="none" 
	d="
M371.010498,142.350647 
	C372.247345,142.131577 373.356873,142.633240 373.820343,143.798065 
	C375.358185,147.662979 378.137085,147.307068 381.590546,146.054443 
	C382.447479,147.906921 381.305725,148.202576 379.780884,148.287277 
	C377.140442,148.433960 374.505646,148.682571 371.441406,148.816986 
	C374.225494,146.729843 370.096130,144.717926 371.010498,142.350647 
z"/>
<path fill="#A5BBFA" opacity="1.000000" stroke="none" 
	d="
M188.588409,303.000061 
	C188.999573,303.444183 188.999756,303.888367 188.999786,304.665649 
	C187.953186,307.573273 184.075165,304.045990 183.264557,307.772278 
	C182.675674,307.269836 182.289749,306.561157 181.898132,305.539856 
	C183.262390,302.438812 185.855957,303.103424 188.588409,303.000061 
z"/>
<path fill="#9DB1F0" opacity="1.000000" stroke="none" 
	d="
M369.718628,133.719864 
	C368.860138,135.224716 367.274414,134.952347 365.380798,134.998627 
	C364.687378,134.540298 364.382568,134.083237 364.034851,133.346893 
	C365.791077,133.218292 367.590271,133.369003 369.718628,133.719864 
z"/>
<path fill="#9FB4F2" opacity="1.000000" stroke="none" 
	d="
M75.200722,239.134460 
	C75.213097,237.666931 76.024338,237.060989 77.651550,237.008972 
	C77.998886,237.695648 78.005997,238.397308 78.012520,239.449707 
	C77.589355,239.936569 77.166771,240.072662 76.409363,240.184402 
	C75.855339,239.873123 75.636131,239.586182 75.200722,239.134460 
z"/>
<path fill="#9FB4F2" opacity="1.000000" stroke="none" 
	d="
M92.516724,221.733490 
	C92.674248,224.530594 90.853485,223.237366 89.131989,222.987900 
	C89.723633,221.983032 90.938164,221.864655 92.516724,221.733490 
z"/>
<path fill="#9EB1EE" opacity="1.000000" stroke="none" 
	d="
M141.465912,304.755371 
	C141.251587,304.835693 141.109970,304.688202 140.995667,304.329529 
	C141.212769,304.214294 141.384644,304.350708 141.465912,304.755371 
z"/>
<path fill="#99ACE5" opacity="1.000000" stroke="none" 
	d="
M152.778381,123.133415 
	C152.903580,123.338211 152.741943,123.577950 152.328506,123.890228 
	C152.128220,123.662971 152.266495,123.398170 152.778381,123.133415 
z"/>
<path fill="#020204" opacity="1.000000" stroke="none" 
	d="
M226.391296,192.437622 
	C218.568695,199.666733 211.147644,206.809586 204.321533,214.533951 
	C202.468170,216.631195 201.261398,217.316025 199.036880,214.732208 
	C192.200912,206.792053 184.612976,199.560669 176.805038,192.584274 
	C175.084671,191.047165 175.140762,190.204697 176.760040,188.814163 
	C185.588333,181.232880 193.657547,172.877594 201.547531,163.846191 
	C209.602646,172.898544 217.903915,181.244263 226.712479,189.072479 
	C227.957535,190.178955 228.237289,191.189178 226.391296,192.437622 
z"/>
<path fill="#A9BBFA" opacity="1.000000" stroke="none" 
	d="
M183.009964,289.369080 
	C185.672470,289.793854 188.058304,290.866821 188.001648,294.626709 
	C184.529022,294.976471 182.959839,293.137268 183.009964,289.369080 
z"/>
<path fill="#9DB1F0" opacity="1.000000" stroke="none" 
	d="
M369.012756,139.346558 
	C369.988861,139.505814 370.696228,140.235794 370.956848,141.677795 
	C369.678009,141.794296 369.067719,140.985352 369.012756,139.346558 
z"/>
</svg>